<svg xmlns="http://www.w3.org/2000/svg" width="18.594" height="16.98" viewBox="1652.168 205.939 18.594 16.98"><path d="M1669.853 212.375c-.34-.447-.84-.815-1.503-1.103a5.253 5.253 0 0 0-1.678-.411 6.305 6.305 0 0 0-.515-.021 5.335 5.335 0 0 0-3.94 1.661 6.824 6.824 0 0 0-.187.198.871.871 0 0 1-.06.06c-.175.158-.302.113-.324-.121a.839.839 0 0 1-.004-.08v-.804a.604.604 0 0 0-.604-.604h-2.159a.604.604 0 0 0-.604.604v10.562c0 .333.27.603.604.603h2.417c.334 0 .604-.27.604-.603v-3.673c0-1.53.093-2.58.277-3.147a2.6 2.6 0 0 1 1.026-1.367 2.91 2.91 0 0 1 1.69-.516c.49 0 .91.12 1.258.361a1.974 1.974 0 0 1 .696.864 2.465 2.465 0 0 1 .058.149c.155.434.233 1.39.233 2.87v4.459c0 .333.27.603.603.603h2.417c.334 0 .604-.27.604-.603v-5.982c0-.95-.054-1.702-.161-2.257a4.739 4.739 0 0 0-.039-.18 3.995 3.995 0 0 0-.71-1.522Zm-17.08 10.544h2.417c.333 0 .603-.27.603-.603v-10.562a.604.604 0 0 0-.603-.604h-2.418a.604.604 0 0 0-.604.604v10.562a.603.603 0 0 0 .604.603Zm0-13.626h2.417a.604.604 0 0 0 .603-.604v-2.146a.604.604 0 0 0-.603-.603h-2.418a.604.604 0 0 0-.604.603v2.146a.604.604 0 0 0 .604.604Z" fill="rgba(255, 255, 255, 1)" fill-rule="evenodd" data-name="Shape 15"/></svg>