<svg xmlns="http://www.w3.org/2000/svg" width="17.388" height="14.443" viewBox="1601.355 208.473 17.388 14.443"><path d="M1606.823 222.916a10.064 10.064 0 0 0 4.419-.975c3.148-1.52 5.06-4.603 5.584-7.686a10.26 10.26 0 0 0 .147-1.715 7.093 7.093 0 0 0-.01-.471 7.353 7.353 0 0 0 1.78-1.888 7.015 7.015 0 0 1-2.05.574 3.65 3.65 0 0 0 1.569-2.017 7.06 7.06 0 0 1-2.266.885 3.54 3.54 0 0 0-1.632-1.013 3.513 3.513 0 0 0-3.415.855 3.689 3.689 0 0 0-1.124 2.659c0 .274.03.551.092.825a10.054 10.054 0 0 1-7.352-3.81 3.697 3.697 0 0 0-.471 1.53c-.008.1-.012.2-.012.3a3.67 3.67 0 0 0 1.587 3.038 3.488 3.488 0 0 1-1.619-.457v.047c0 1.735 1.198 3.23 2.862 3.575a3.495 3.495 0 0 1-.936.128h-.046a3.488 3.488 0 0 1-.629-.066 3.581 3.581 0 0 0 3.333 2.533 7.06 7.06 0 0 1-4.424 1.564 6.892 6.892 0 0 1-.006 0 7.046 7.046 0 0 1-.85-.053 9.94 9.94 0 0 0 5.455 1.635 9.807 9.807 0 0 0 .014 0Zm0-.003a1862.059 1862.059 0 0 1 .13 0 1481.653 1481.653 0 0 1 .105 0m-.226.003c.128 0 1.606-.004.35-.003" fill="rgba(255, 255, 255, 1)" fill-rule="evenodd" data-name="Shape 11"/></svg>