<svg xmlns="http://www.w3.org/2000/svg" width="19.785" height="13.861" viewBox="1548.524 207.504 19.785 13.861"><path d="M1567.902 209.673a2.48 2.48 0 0 0-1.744-1.745 4.488 4.488 0 0 0-.458-.094c-2.046-.33-7.283-.33-7.283-.33s-5.32 0-7.33.325a4.416 4.416 0 0 0-.411.083 2.53 2.53 0 0 0-1.744 1.76 6.798 6.798 0 0 0-.116.543c-.268 1.52-.29 3.813-.291 4.172a11.125 11.125 0 0 0 0 .047 12.629 12.629 0 0 0 0 .063c.002.43.03 2.987.348 4.455a5.488 5.488 0 0 0 .059.244 2.48 2.48 0 0 0 1.744 1.745c1.446.392 6.835.421 7.64.424a40.647 40.647 0 0 0 .101 0s5.319 0 7.33-.325a4.416 4.416 0 0 0 .411-.083 2.48 2.48 0 0 0 1.744-1.745 6.802 6.802 0 0 0 .116-.542c.268-1.52.29-3.814.291-4.172a11.128 11.128 0 0 0 0-.047 3.132 3.132 0 0 0 0-.003c0-.107.008-2.972-.352-4.556a5.255 5.255 0 0 0-.055-.22Zm-11.457 7.729v-5.936l5.15 2.968-5.15 2.968Z" fill="rgba(255, 255, 255, 1)" fill-rule="evenodd" data-name="Shape 17"/></svg>